<?xml version="1.0" encoding="utf-8"?>
<!-- Generator: Adobe Illustrator 16.0.4, SVG Export Plug-In . SVG Version: 6.00 Build 0)  -->
<!DOCTYPE svg PUBLIC "-//W3C//DTD SVG 1.1//EN" "http://www.w3.org/Graphics/SVG/1.1/DTD/svg11.dtd">
<svg version="1.1" id="Layer_1" xmlns="http://www.w3.org/2000/svg" xmlns:xlink="http://www.w3.org/1999/xlink" x="0px" y="0px"
	 width="350px" height="250px" viewBox="0 0 350 250" enable-background="new 0 0 350 250" xml:space="preserve">
<g id="Layer_2">
	<g>
		<g>
			<path fill="#FF3478" d="M112.7,18.114c-1.119-0.636-2.312-0.952-3.582-0.952c-1.749,0-3.305,0.608-4.657,1.829
				c-1.542,1.4-2.311,3.148-2.311,5.25c0,1.961,0.683,3.625,2.044,4.997c1.368,1.375,3.009,2.062,4.939,2.062
				c1.309,0,2.506-0.313,3.597-0.936c1.085-0.624,1.945-1.485,2.577-2.587c0.629-1.106,0.942-2.294,0.942-3.558
				c0-1.261-0.309-2.437-0.938-3.524C114.685,19.605,113.815,18.75,112.7,18.114z M111.8,27.055c-0.7,0.735-1.581,1.104-2.637,1.104
				c-1.055,0-1.929-0.362-2.619-1.086c-0.69-0.725-1.035-1.671-1.035-2.845c0-1.135,0.351-2.066,1.048-2.795
				c0.697-0.729,1.571-1.096,2.619-1.096c1.07,0,1.953,0.36,2.639,1.081c0.692,0.722,1.035,1.663,1.035,2.811
				C112.852,25.382,112.503,26.323,111.8,27.055z"/>
		</g>
		<g>
			<rect x="118.582" y="12" fill="#FF3478" width="3.356" height="19.172"/>
		</g>
		<g>
			<path fill="#FF3478" d="M128.523,17.275h-3.36v12.078c0,3.546-0.197,4.757-2.912,4.987v3.414c6.314,0,6.271-5.157,6.271-7.47
				L128.523,17.275L128.523,17.275z"/>
		</g>
		<g>
			<path fill="#FF3478" d="M82.885,19.215c-0.658-0.654-1.423-1.166-2.277-1.526c-1.719-0.722-3.717-0.722-5.438,0
				c-0.856,0.36-1.625,0.872-2.277,1.53c-0.667,0.667-1.188,1.441-1.536,2.302c-0.355,0.858-0.537,1.773-0.537,2.711
				c0,0.929,0.182,1.834,0.531,2.691c0.353,0.857,0.875,1.634,1.542,2.305c0.652,0.655,1.42,1.167,2.277,1.528
				c0.858,0.361,1.77,0.544,2.721,0.544c2.329,0,3.796-1.545,3.796-1.545v1.414h3.269v-6.937c0-0.938-0.178-1.853-0.528-2.711
				C84.074,20.66,83.554,19.885,82.885,19.215z M81.393,25.707c-0.202,0.465-0.476,0.874-0.817,1.213
				c-0.342,0.344-0.75,0.619-1.212,0.818c-0.913,0.391-2.036,0.391-2.947,0c-0.462-0.2-0.871-0.475-1.209-0.818
				c-0.348-0.339-0.619-0.748-0.822-1.213c-0.196-0.454-0.296-0.951-0.296-1.475s0.1-1.025,0.299-1.485
				c0.2-0.471,0.47-0.88,0.818-1.224c0.339-0.344,0.748-0.617,1.209-0.817c0.451-0.194,0.954-0.294,1.475-0.294
				c0.518,0,1.018,0.1,1.472,0.294c0.463,0.2,0.87,0.473,1.212,0.817c0.341,0.343,0.615,0.752,0.817,1.225
				c0.195,0.459,0.294,0.959,0.294,1.484C81.688,24.756,81.588,25.253,81.393,25.707z"/>
		</g>
		<g>
			<path fill="#FF3478" d="M142.931,19.215c-0.658-0.654-1.422-1.166-2.277-1.526c-1.718-0.722-3.716-0.722-5.438,0
				c-0.857,0.36-1.626,0.872-2.277,1.53c-0.665,0.667-1.185,1.441-1.536,2.302c-0.354,0.858-0.536,1.773-0.536,2.711
				c0,0.929,0.183,1.834,0.533,2.691c0.354,0.857,0.874,1.634,1.539,2.305c0.651,0.655,1.42,1.167,2.277,1.528
				c0.857,0.361,1.772,0.544,2.719,0.544c2.333,0,3.799-1.545,3.799-1.545v1.414H145v-6.937c0-0.938-0.178-1.853-0.53-2.711
				C144.118,20.66,143.602,19.885,142.931,19.215z M141.438,25.707c-0.202,0.465-0.476,0.874-0.816,1.213
				c-0.345,0.344-0.75,0.619-1.215,0.818c-0.911,0.391-2.035,0.391-2.944,0c-0.463-0.2-0.871-0.475-1.21-0.818
				c-0.35-0.339-0.619-0.748-0.822-1.213c-0.197-0.454-0.296-0.951-0.296-1.475s0.099-1.025,0.299-1.485
				c0.2-0.471,0.469-0.88,0.818-1.224c0.34-0.344,0.747-0.617,1.21-0.817c0.453-0.194,0.954-0.294,1.472-0.294
				c0.521,0,1.02,0.1,1.473,0.294c0.464,0.2,0.87,0.473,1.215,0.817c0.34,0.343,0.614,0.752,0.816,1.225
				c0.194,0.459,0.296,0.959,0.296,1.484C141.734,24.756,141.632,25.253,141.438,25.707z"/>
		</g>
		<g>
			<path fill="#FF3478" d="M90.974,24.431v6.741H87.62V17.291h3.382v1.204c0.201-0.2,0.447-0.384,0.74-0.555
				c0.295-0.169,0.602-0.313,0.919-0.431c0.318-0.116,0.644-0.205,0.977-0.265c0.335-0.063,0.658-0.094,0.969-0.094
				c0.681,0,1.338,0.107,1.966,0.324c0.629,0.218,1.188,0.553,1.678,1.002c0.489,0.451,0.88,1.033,1.178,1.745
				c0.291,0.716,0.441,1.572,0.441,2.551v8.401h-3.355v-7.531c0-0.386-0.016-0.706-0.041-0.974v-0.001
				c-0.014-0.164-0.075-0.479-0.075-0.479c-0.251-1.294-1.429-2.186-2.639-2.077c0,0-1.682,0.062-2.384,1.63
				C91.376,21.741,90.953,22.475,90.974,24.431z"/>
		</g>
		<g>
			<polygon fill="#FF3478" points="64.628,30.957 70.577,17.275 66.733,17.275 62.772,26.644 58.846,17.275 55,17.275 
				60.899,30.957 57.942,37.753 61.677,37.753 64.628,30.96 64.632,30.96 			"/>
		</g>
	</g>
	<g>
		<g>
			<path fill="#AAAAAA" d="M112.7,68.114c-1.119-0.636-2.312-0.952-3.582-0.952c-1.749,0-3.305,0.608-4.657,1.829
				c-1.542,1.4-2.311,3.148-2.311,5.25c0,1.961,0.683,3.625,2.044,4.997c1.368,1.375,3.009,2.062,4.939,2.062
				c1.309,0,2.506-0.313,3.597-0.936c1.085-0.624,1.945-1.485,2.577-2.587c0.629-1.106,0.942-2.294,0.942-3.558
				c0-1.261-0.309-2.437-0.938-3.524C114.685,69.605,113.815,68.75,112.7,68.114z M111.8,77.055c-0.7,0.735-1.581,1.104-2.637,1.104
				c-1.055,0-1.929-0.362-2.619-1.086c-0.69-0.725-1.035-1.671-1.035-2.845c0-1.135,0.351-2.066,1.048-2.795
				c0.697-0.729,1.571-1.096,2.619-1.096c1.07,0,1.953,0.36,2.639,1.081c0.692,0.722,1.035,1.663,1.035,2.811
				C112.852,75.382,112.503,76.323,111.8,77.055z"/>
		</g>
		<g>
			<rect x="118.582" y="62" fill="#AAAAAA" width="3.356" height="19.172"/>
		</g>
		<g>
			<path fill="#AAAAAA" d="M128.523,67.275h-3.36v12.078c0,3.546-0.197,4.757-2.912,4.987v3.414c6.314,0,6.271-5.157,6.271-7.47
				L128.523,67.275L128.523,67.275z"/>
		</g>
		<g>
			<path fill="#AAAAAA" d="M82.885,69.215c-0.658-0.654-1.423-1.166-2.277-1.526c-1.719-0.722-3.717-0.722-5.438,0
				c-0.856,0.36-1.625,0.872-2.277,1.53c-0.667,0.667-1.188,1.441-1.536,2.302c-0.355,0.858-0.537,1.773-0.537,2.711
				c0,0.929,0.182,1.834,0.531,2.691c0.353,0.857,0.875,1.634,1.542,2.305c0.652,0.655,1.42,1.167,2.277,1.528
				c0.858,0.361,1.77,0.544,2.721,0.544c2.329,0,3.796-1.545,3.796-1.545v1.414h3.269v-6.937c0-0.938-0.178-1.853-0.528-2.711
				C84.074,70.66,83.554,69.885,82.885,69.215z M81.393,75.707c-0.202,0.465-0.476,0.874-0.817,1.213
				c-0.342,0.344-0.75,0.619-1.212,0.818c-0.913,0.391-2.036,0.391-2.947,0c-0.462-0.2-0.871-0.475-1.209-0.818
				c-0.348-0.339-0.619-0.748-0.822-1.213c-0.196-0.454-0.296-0.951-0.296-1.475s0.1-1.025,0.299-1.485
				c0.2-0.471,0.47-0.88,0.818-1.224c0.339-0.344,0.748-0.617,1.209-0.817c0.451-0.194,0.954-0.294,1.475-0.294
				c0.518,0,1.018,0.1,1.472,0.294c0.463,0.2,0.87,0.473,1.212,0.817c0.341,0.343,0.615,0.752,0.817,1.225
				c0.195,0.459,0.294,0.959,0.294,1.484C81.688,74.756,81.588,75.253,81.393,75.707z"/>
		</g>
		<g>
			<path fill="#AAAAAA" d="M142.931,69.215c-0.658-0.654-1.422-1.166-2.277-1.526c-1.718-0.722-3.716-0.722-5.438,0
				c-0.857,0.36-1.626,0.872-2.277,1.53c-0.665,0.667-1.185,1.441-1.536,2.302c-0.354,0.858-0.536,1.773-0.536,2.711
				c0,0.929,0.183,1.834,0.533,2.691c0.354,0.857,0.874,1.634,1.539,2.305c0.651,0.655,1.42,1.167,2.277,1.528
				c0.857,0.361,1.772,0.544,2.719,0.544c2.333,0,3.799-1.545,3.799-1.545v1.414H145v-6.937c0-0.938-0.178-1.853-0.53-2.711
				C144.118,70.66,143.602,69.885,142.931,69.215z M141.438,75.707c-0.202,0.465-0.476,0.874-0.816,1.213
				c-0.345,0.344-0.75,0.619-1.215,0.818c-0.911,0.391-2.035,0.391-2.944,0c-0.463-0.2-0.871-0.475-1.21-0.818
				c-0.35-0.339-0.619-0.748-0.822-1.213c-0.197-0.454-0.296-0.951-0.296-1.475s0.099-1.025,0.299-1.485
				c0.2-0.471,0.469-0.88,0.818-1.224c0.34-0.344,0.747-0.617,1.21-0.817c0.453-0.194,0.954-0.294,1.472-0.294
				c0.521,0,1.02,0.1,1.473,0.294c0.464,0.2,0.87,0.473,1.215,0.817c0.34,0.343,0.614,0.752,0.816,1.225
				c0.194,0.459,0.296,0.959,0.296,1.484C141.734,74.756,141.632,75.253,141.438,75.707z"/>
		</g>
		<g>
			<path fill="#AAAAAA" d="M90.974,74.431v6.741H87.62V67.291h3.382v1.204c0.201-0.2,0.447-0.384,0.74-0.555
				c0.295-0.169,0.602-0.313,0.919-0.431c0.318-0.116,0.644-0.205,0.977-0.265c0.335-0.063,0.658-0.094,0.969-0.094
				c0.681,0,1.338,0.107,1.966,0.324c0.629,0.218,1.188,0.553,1.678,1.002c0.489,0.451,0.88,1.033,1.178,1.745
				c0.291,0.716,0.441,1.572,0.441,2.551v8.401h-3.355v-7.531c0-0.386-0.016-0.706-0.041-0.974v-0.001
				c-0.014-0.164-0.075-0.479-0.075-0.479c-0.251-1.294-1.429-2.186-2.639-2.077c0,0-1.682,0.062-2.384,1.63
				C91.376,71.741,90.953,72.475,90.974,74.431z"/>
		</g>
		<g>
			<polygon fill="#AAAAAA" points="64.628,80.957 70.577,67.275 66.733,67.275 62.772,76.644 58.846,67.275 55,67.275 
				60.899,80.957 57.942,87.753 61.677,87.753 64.628,80.96 64.632,80.96 			"/>
		</g>
	</g>
	<path fill="#FF3478" d="M20.004,30.035L13.61,44.747l-0.696-7.97L5,36.406l14.993-6.382L20.018,30l-0.007,0.018l0.019-0.006
		L20.004,30.035z"/>
</g>
<g id="Layer_3">
	<polygon fill="#BBBBBB" points="18,10.699 17.274,10 12.5,14.6 7.725,10 7,10.699 12.498,16 12.5,15.998 12.502,16 	"/>
	<polygon fill="#FF3478" points="44,60.699 43.274,60 38.5,64.6 33.725,60 33,60.699 38.498,66 38.5,65.998 38.502,66 	"/>
	<rect x="158" y="108" fill="#292929" width="34" height="34"/>
	<path fill="#AAAAAA" d="M173.998,129.99l3.998-3.99H170L173.998,129.99z"/>
	<path fill="#AAAAAA" d="M173.998,120l3.998,3.991H170L173.998,120z"/>
	<path opacity="0.4" fill="#FFFFFF" enable-background="new    " d="M14.818,222.998v-8.999h2.731L17.996,210h-3.178v-1.948
		c0-1.028,0.027-2.052,1.465-2.052h1.457v-2.859c0-0.043-1.251-0.141-2.518-0.141c-2.645,0-4.3,1.657-4.3,4.699V210H8v3.999h2.923
		v8.999H14.818L14.818,222.998z"/>
	<path opacity="0.4" fill="#FFFFFF" enable-background="new    " d="M33.658,212.984c0-1.826,1.484-3.309,3.316-3.309
		s3.317,1.481,3.317,3.309c0,1.826-1.485,3.308-3.317,3.308S33.658,214.811,33.658,212.984 M31.864,212.984
		c0,2.812,2.288,5.095,5.11,5.095c2.822,0,5.11-2.281,5.11-5.095c0-2.814-2.288-5.096-5.11-5.096
		C34.152,207.889,31.864,210.171,31.864,212.984 M41.092,207.688c0,0.656,0.535,1.19,1.195,1.19c0.658,0,1.194-0.534,1.194-1.19
		s-0.535-1.189-1.195-1.189C41.627,206.498,41.092,207.031,41.092,207.688 M32.954,221.061c-0.971-0.045-1.498-0.205-1.849-0.342
		c-0.884-0.344-1.548-1.004-1.889-1.883c-0.592-1.512-0.396-8.697-0.343-9.859c0.052-1.141,0.282-2.182,1.087-2.984
		c0.995-0.992,2.281-1.479,11.035-1.083c1.144,0.052,2.187,0.28,2.993,1.083c0.995,0.992,1.488,2.287,1.087,11.003
		c-0.044,0.967-0.206,1.491-0.343,1.842C43.833,221.143,41.76,221.464,32.954,221.061 M32.872,203.123
		c-1.628,0.074-3.04,0.473-4.179,1.605c-1.144,1.14-1.537,2.556-1.61,4.166c-0.047,1.004-0.314,8.598,0.462,10.588
		c0.523,1.345,1.556,2.377,2.911,2.901c0.634,0.245,1.356,0.413,2.416,0.462c8.861,0.4,12.146,0.182,13.532-3.363
		c0.246-0.631,0.415-1.353,0.462-2.407c0.404-8.88-0.065-10.806-1.61-12.347C44.03,203.507,42.589,202.676,32.872,203.123"/>
	<path opacity="0.4" fill="#FFFFFF" enable-background="new    " d="M72.104,207.184c-0.344-0.453-0.93-0.806-1.555-0.922
		c-1.833-0.349-13.274-0.349-15.108,0c-0.5,0.094-0.945,0.319-1.328,0.672c-1.613,1.496-1.107,9.516-0.719,10.813
		c0.164,0.563,0.375,0.969,0.641,1.233c0.344,0.353,0.812,0.596,1.352,0.703c1.511,0.312,9.29,0.486,15.132,0.047
		c0.539-0.094,1.016-0.344,1.391-0.711C73.399,217.531,73.297,209.061,72.104,207.184z M60.994,215.583c0-1.867,0-3.743,0-5.61
		c1.993,0.938,3.536,1.844,5.363,2.818C64.852,213.626,62.987,214.562,60.994,215.583z"/>
	<path opacity="0.8" fill="#FFFFFF" enable-background="new    " d="M14.818,247.748v-8.999h2.731l0.446-3.999h-3.178v-1.947
		c0-1.029,0.027-2.053,1.465-2.053h1.457v-2.859c0-0.043-1.251-0.141-2.518-0.141c-2.645,0-4.3,1.657-4.3,4.699v2.301H8v3.999h2.923
		v8.999H14.818z"/>
	<path opacity="0.8" fill="#FFFFFF" enable-background="new    " d="M33.658,237.734c0-1.826,1.484-3.309,3.316-3.309
		s3.317,1.481,3.317,3.309c0,1.826-1.485,3.308-3.317,3.308S33.658,239.561,33.658,237.734 M31.864,237.734
		c0,2.812,2.288,5.095,5.11,5.095c2.822,0,5.11-2.281,5.11-5.095c0-2.814-2.288-5.096-5.11-5.096
		C34.152,232.639,31.864,234.921,31.864,237.734 M41.092,232.438c0,0.656,0.535,1.19,1.195,1.19c0.658,0,1.194-0.534,1.194-1.19
		s-0.535-1.189-1.195-1.189C41.627,231.248,41.092,231.781,41.092,232.438 M32.954,245.811c-0.971-0.045-1.498-0.205-1.849-0.342
		c-0.884-0.344-1.548-1.004-1.889-1.883c-0.592-1.512-0.396-8.697-0.343-9.859c0.052-1.141,0.282-2.182,1.087-2.984
		c0.995-0.992,2.281-1.479,11.035-1.083c1.144,0.052,2.187,0.28,2.993,1.083c0.995,0.992,1.488,2.287,1.087,11.003
		c-0.044,0.967-0.206,1.491-0.343,1.842C43.833,245.893,41.76,246.214,32.954,245.811 M32.872,227.873
		c-1.628,0.074-3.04,0.473-4.179,1.605c-1.144,1.14-1.537,2.556-1.61,4.166c-0.047,1.004-0.314,8.598,0.462,10.588
		c0.523,1.345,1.556,2.377,2.911,2.901c0.634,0.245,1.356,0.413,2.416,0.462c8.861,0.4,12.146,0.182,13.532-3.363
		c0.246-0.631,0.415-1.353,0.462-2.407c0.404-8.88-0.065-10.806-1.61-12.347C44.03,228.257,42.589,227.426,32.872,227.873"/>
	<path opacity="0.8" fill="#FFFFFF" enable-background="new    " d="M72.104,231.934c-0.344-0.453-0.93-0.806-1.555-0.922
		c-1.833-0.349-13.274-0.349-15.108,0c-0.5,0.094-0.945,0.319-1.328,0.672c-1.613,1.496-1.107,9.516-0.719,10.813
		c0.164,0.563,0.375,0.969,0.641,1.233c0.344,0.353,0.812,0.596,1.352,0.703c1.511,0.312,9.29,0.486,15.132,0.047
		c0.539-0.094,1.016-0.344,1.391-0.711C73.399,242.281,73.297,233.811,72.104,231.934z M60.994,240.333c0-1.867,0-3.743,0-5.61
		c1.993,0.938,3.536,1.844,5.363,2.818C64.852,238.376,62.987,239.312,60.994,240.333z"/>
	<path id="path7791_4_" fill="#FFFFFF" d="M307.5,17c-0.738-4.5-3.5-6-4.977-8.5C302.186,7.819,302,7.055,302,6.25
		c0-2.897,2.464-5.25,5.5-5.25c3.034,0,5.5,2.352,5.5,5.25c0,0.808-0.186,1.569-0.523,2.25C311.001,11,308.761,12.5,307.5,17
		L307.5,17z M310.001,6c0-1.379-1.121-2.5-2.501-2.5s-2.501,1.121-2.501,2.5c0,1.38,1.121,2.5,2.501,2.5S310.001,7.38,310.001,6z"/>
	<path fill="#484848" d="M216,35c8.285,0,15,6.716,15,15s-6.715,15-15,15c-8.283,0-15-6.716-15-15S207.717,35,216,35z"/>
	<path fill="#FFFFFF" d="M217.143,49.461h-2.285v2.154h2.285V49.461z M221.143,49.461h-2.285v2.154h2.285V49.461z M217.143,52.692
		h-2.285v2.153h2.285V52.692z M213.143,52.692h-2.285v2.153h2.285V52.692z M220,44.076V43h-1.143v1.077h-5.715V43H212v1.077h-4V57
		h16V44.076H220z M222.857,55.923h-13.715v-7.538h13.715V55.923z M222.857,47.308h-13.715v-2.154H212v1.077h1.143v-1.077h5.715
		v1.077H220v-1.077h2.857V47.308z M213.143,49.461h-2.285v2.154h2.285V49.461z M221.143,52.692h-2.285v2.153h2.285V52.692z"/>
	<polygon fill="#666666" points="289.873,39.995 288.904,40.952 296.995,49 270,49 270,51 296.995,51 288.904,59.048 
		289.873,60.005 300,50 	"/>
	<g>
		<g>
			<path fill="#BBBBBB" d="M174.992,79.352c2.41,0,4.574-1.613,5.262-3.92c0.148-0.5-0.137-1.026-0.636-1.174
				c-0.499-0.148-1.024,0.136-1.173,0.635c-0.451,1.515-1.871,2.572-3.453,2.572c-1.579,0-2.998-1.056-3.451-2.567
				c-0.148-0.499-0.672-0.782-1.174-0.634c-0.498,0.15-0.783,0.676-0.633,1.175C170.423,77.742,172.585,79.352,174.992,79.352z
				 M175,58c-9.389,0-17,7.611-17,17c0,0.596,0.032,1.184,0.092,1.764c0.014,0.132,0.043,0.259,0.06,0.39
				c0.058,0.448,0.118,0.894,0.209,1.33c0.024,0.115,0.062,0.225,0.087,0.338c0.104,0.449,0.213,0.894,0.352,1.327
				c0.025,0.08,0.059,0.155,0.086,0.234c0.154,0.463,0.322,0.921,0.516,1.368c0.018,0.041,0.041,0.08,0.059,0.121
				c0.212,0.479,0.442,0.946,0.696,1.401c0.007,0.012,0.015,0.022,0.021,0.034C163.088,88.492,168.631,92,175,92
				c4.57,0,8.71-1.812,11.766-4.747l0.002-0.001c1.198-1.152,2.229-2.475,3.049-3.932c0.009-0.014,0.018-0.025,0.023-0.039
				c0.254-0.454,0.484-0.922,0.697-1.399c0.018-0.042,0.041-0.082,0.059-0.125c0.193-0.447,0.363-0.905,0.519-1.37
				c0.026-0.079,0.061-0.154,0.086-0.232c0.139-0.435,0.248-0.88,0.353-1.329c0.025-0.114,0.062-0.224,0.088-0.339
				c0.09-0.435,0.15-0.879,0.207-1.325c0.019-0.133,0.047-0.263,0.062-0.397C191.968,76.185,192,75.596,192,75
				C192,65.611,184.389,58,175,58z M174.993,65.188c4.661,0,8.438,3.778,8.438,8.439s-3.777,8.439-8.438,8.439
				s-8.439-3.778-8.439-8.439S170.332,65.188,174.993,65.188z M175,90.248c-3.998,0-7.629-1.558-10.351-4.083l2.415-1.829
				c0.273-0.207,0.607-0.318,0.949-0.318h13.654c0.322,0,0.64,0.1,0.903,0.285l2.724,1.912
				C182.578,88.711,178.971,90.248,175,90.248z"/>
		</g>
	</g>
	<path opacity="0.1" enable-background="new    " d="M245.123,0l2.678,4.92l5.444,1.06l-3.79,4.101l0.688,5.575l-5.02-2.386
		l-5.021,2.386l0.688-5.575L237,5.979l5.445-1.06L245.123,0"/>
	<path fill="#FFDE00" d="M208.123,0l2.678,4.92l5.444,1.06l-3.79,4.101l0.688,5.575l-5.02-2.386l-5.021,2.386l0.688-5.575L200,5.979
		l5.445-1.06L208.123,0"/>
	<g>
		<path fill="#FFDE00" d="M226.123,0v13.27l-5.021,2.386l0.688-5.575L218,5.979l5.445-1.06L226.123,0"/>
		<path opacity="0.1" enable-background="new    " d="M226.123,0l2.678,4.92l5.445,1.06l-3.791,4.101l0.688,5.575l-5.021-2.386
			L226.123,0"/>
	</g>
	<path fill="#00E0D1" d="M19.659,162.999l-1.122,1.574l0.185,1.925l-1.759,0.803l-0.803,1.758l-1.925-0.184l-1.575,1.122
		l-1.575-1.122l-1.925,0.184l-0.803-1.758l-1.759-0.803l0.184-1.925l-1.122-1.574l1.122-1.575l-0.184-1.925l1.759-0.804l0.803-1.758
		l1.925,0.185L12.66,156l1.575,1.122l1.925-0.185l0.803,1.758l1.759,0.804l-0.185,1.925L19.659,162.999z"/>
	<polygon fill="#FFFFFF" points="16.512,160.913 15.619,160 11.778,163.926 9.894,162 9,162.913 11.767,165.742 11.778,165.73 
		11.789,165.742 	"/>
	<path fill="#666666" d="M19.416,111.403v-0.004l0,0L13.011,105L5,112.993l1.13,1.131l0.473-0.475c0,3.225,0,5.01,0,7.349
		c3.166,0,0.561,0,5.605,0c0-1.158,0-2.044,0-3.2h1.603c0,1.158,0,2.043,0,3.2h5.605v-0.003c0-2.339,0-4.104,0-7.33l0.469,0.467
		L21.019,113L19.416,111.403z M17.814,119.398h-2.402v-3.199c-4.117,0-2.679,0-4.806,0v3.199H8.204v-7.349l4.797-4.791l4.813,4.807
		V119.398z"/>
	<path fill="#888888" d="M9.787,142.016c0.201,0,0.402-0.062,0.556-0.186l4.648-3.822l-4.648-3.822
		c-0.308-0.248-0.805-0.248-1.112,0c-0.308,0.246-0.308,0.646,0,0.892l3.658,2.932l-3.658,2.933c-0.308,0.246-0.308,0.645,0,0.891
		C9.384,141.953,9.585,142.016,9.787,142.016z"/>
	<polygon fill="#AAAAAA" points="328.128,37.995 327.154,38.958 337.251,49 307,49 307,51 337.25,51 327.154,61.042 328.128,62.004 
		340.256,50 	"/>
	<g>
		<path fill="#FFFFFF" d="M17.284,179.104C16.4,177.775,14.995,177,13.169,177c-1.849,0-3.258,0.775-4.14,2.104
			c-2.386,0-5.029,0-5.029,0v19.021h18.005v-19.021C22.005,179.104,19.329,179.104,17.284,179.104z M13.169,179
			c1.65,0,2.455,0.893,2.834,1.921h-5.701C10.689,179.848,11.518,179,13.169,179z M20.081,196.159H5.924V181.07c0,0,1.108,0,2.292,0
			C8.088,181.645,8,182.251,8,182.921h10.317c0-0.67-0.088-1.276-0.218-1.851c0.962,0,1.981,0,1.981,0L20.081,196.159
			L20.081,196.159z"/>
		<polygon fill="#FFFFFF" points="12.284,190.751 10.244,188.673 9,189.939 11.751,192.742 11.76,192.732 12.293,193.275 
			18.191,187.268 16.948,186 		"/>
	</g>
	<g>
		<path fill="#FF3478" d="M47.907,119.994H28V105h19.907v6.501h-1.039c-0.593,0.017-1.069,0.459-1.069,1.001
			c0,0.543,0.479,0.987,1.073,1.001h1.035V119.994L47.907,119.994z M30,117.994h15.907v-2.647c-1.225-0.402-2.108-1.525-2.108-2.844
			s0.884-2.441,2.108-2.844V107H30V117.994z"/>
		<g>
			<g>
				<path fill="#FF3478" d="M39,113.747h1.589v-2.5H39V113.747z M39,116.993h1.589v-2H39V116.993z M39,108.001v2h1.589v-2H39z"/>
			</g>
		</g>
	</g>
	<path fill="#FF3478" d="M71.997,142.279v-3.982h-1.631v3.982H55.639v-3.983h-1.628v3.983H54V144h18.008v-1.721H71.997z
		 M61.752,137.584l1.26,1.318l0.005-0.006l0.005,0.006l1.26-1.318l-0.005-0.005l3.806-3.979l-1.261-1.32l-2.998,3.138V128h-1.639
		v7.391l-2.974-3.111l-1.26,1.32l3.805,3.979L61.752,137.584z"/>
	<path fill="#888888" d="M46.997,142.281v-3.984h-1.631v3.984H30.639v-3.985h-1.628v3.985H29V144h18.008v-1.719H46.997z
		 M36.752,137.584l1.26,1.318l0.005-0.006l0.005,0.006l1.26-1.318l-0.005-0.005l3.806-3.979l-1.261-1.32l-2.998,3.138V128h-1.639
		v7.391l-2.974-3.111l-1.26,1.32l3.805,3.979L36.752,137.584z"/>
	<path opacity="0.5" fill="#FFFFFF" enable-background="new    " d="M233,157h-2.4L204,130l26.6-27h2.4l-26.6,27L233,157z"/>
	<path opacity="0.5" fill="#FFFFFF" enable-background="new    " d="M248,157h2.4l26.6-27l-26.6-27H248l26.6,27L248,157z"/>
	<path fill="#FFFFFF" d="M233,217h-2.4L204,190l26.6-27h2.4l-26.6,27L233,217z"/>
	<path fill="#FFFFFF" d="M248,217h2.4l26.6-27l-26.6-27H248l26.6,27L248,217z"/>
	<path fill="#FF3478" d="M38,179c4.971,0,9,4.029,9,9s-4.03,9-9,9s-9-4.029-9-9S33.029,179,38,179z"/>
	<polygon fill="#FFFFFF" points="43.417,185.346 42.085,184 36.794,189.355 34.332,186.842 33,188.188 35.462,190.704 
		35.451,190.716 36.783,192.062 36.788,192.059 36.792,192.062 38.124,190.716 38.119,190.71 	"/>
	<g>
		<path fill="#FFFFFF" d="M63,179c4.97,0,9,4.029,9,9s-4.03,9-9,9c-4.971,0-9-4.029-9-9S58.029,179,63,179z"/>
		<path fill="#FF3478" d="M63,181c3.86,0,7,3.141,7,7s-3.14,7-7,7s-7-3.141-7-7S59.14,181,63,181 M63,179c-4.971,0-9,4.029-9,9
			s4.029,9,9,9c4.97,0,9-4.029,9-9S67.97,179,63,179L63,179z"/>
	</g>
	<path fill="#333333" d="M119.001,157.999v2.399l-6,5.602l-6-5.602v-2.399l6,5.601L119.001,157.999z"/>
	<path fill="#FF3478" d="M132.001,166v-2.4l6-5.601l6,5.601v2.4l-6-5.602L132.001,166z"/>
	<path fill="#AAAAAA" d="M187.822,212.178c-0.235-0.236-0.59-0.236-0.826,0L175,224.174l-11.958-11.996
		c-0.236-0.236-0.59-0.236-0.826,0c-0.236,0.236-0.236,0.59,0,0.826L174.174,225l-11.997,11.957c-0.236,0.236-0.236,0.59,0,0.826
		c0.118,0.119,0.275,0.158,0.433,0.158c0.157,0,0.314-0.039,0.433-0.158L175,225.826l11.957,11.957
		c0.119,0.119,0.275,0.158,0.434,0.158c0.156,0,0.314-0.039,0.433-0.158c0.235-0.236,0.235-0.59,0-0.826L175.826,225l11.958-11.957
		C188.02,212.807,188.02,212.414,187.822,212.178"/>
	<path fill="#FFFFFF" d="M137.822,212.178c-0.235-0.236-0.59-0.236-0.826,0L125,224.174l-11.958-11.996
		c-0.236-0.236-0.59-0.236-0.826,0c-0.236,0.236-0.236,0.59,0,0.826L124.174,225l-11.997,11.957c-0.236,0.236-0.236,0.59,0,0.826
		c0.118,0.119,0.275,0.158,0.433,0.158c0.157,0,0.314-0.039,0.433-0.158L125,225.826l11.957,11.957
		c0.119,0.119,0.275,0.158,0.434,0.158c0.156,0,0.314-0.039,0.432-0.158c0.236-0.236,0.236-0.59,0-0.826L125.826,225l11.958-11.957
		C138.02,212.807,138.02,212.414,137.822,212.178"/>
	<path fill="#888888" d="M18.86,55c-0.355,0-0.643,0.288-0.643,0.643v2.085L17.8,57.31c-2.924-2.925-7.682-2.925-10.606,0
		c-2.924,2.924-2.924,7.682,0,10.606c2.924,2.924,7.683,2.924,10.606,0c0.251-0.251,0.251-0.659,0-0.91
		c-0.25-0.25-0.658-0.25-0.909,0c-2.422,2.423-6.365,2.422-8.788,0c-2.422-2.422-2.423-6.365,0-8.788
		c2.423-2.423,6.366-2.422,8.788,0l0.418,0.418h-2.085c-0.354,0-0.642,0.288-0.642,0.643c0,0.178,0.072,0.339,0.188,0.455
		c0.116,0.116,0.277,0.188,0.455,0.188h3.637c0.354,0,0.642-0.288,0.643-0.643v-3.637C19.503,55.288,19.216,55,18.86,55z"/>
	<g>
		<g>
			<path fill="#FFFFFF" d="M37.5,5c4.142,0,7.5,3.358,7.5,7.5S41.642,20,37.5,20S30,16.643,30,12.5S33.358,5,37.5,5z"/>
			<path fill="#AAAAAA" d="M37.5,6c3.584,0,6.5,2.916,6.5,6.5S41.084,19,37.5,19S31,16.084,31,12.5S33.916,6,37.5,6 M37.5,5
				C33.358,5,30,8.358,30,12.5s3.358,7.5,7.5,7.5s7.5-3.357,7.5-7.5S41.642,5,37.5,5L37.5,5z"/>
		</g>
		<g>
			<path fill="#AAAAAA" d="M35.695,8.975c0.461-0.267,1.027-0.4,1.699-0.4c0.883,0,1.616,0.189,2.2,0.569
				c0.584,0.38,0.876,0.942,0.876,1.688c0,0.457-0.127,0.842-0.38,1.154c-0.147,0.19-0.433,0.433-0.853,0.729l-0.416,0.29
				c-0.226,0.158-0.375,0.343-0.449,0.554c-0.047,0.134-0.072,0.341-0.076,0.622h-1.588c0.023-0.594,0.086-1.005,0.188-1.231
				c0.101-0.227,0.361-0.488,0.782-0.783l0.427-0.301c0.141-0.095,0.253-0.198,0.339-0.311c0.155-0.193,0.233-0.406,0.233-0.639
				c0-0.267-0.087-0.511-0.26-0.73c-0.174-0.22-0.49-0.329-0.95-0.329c-0.452,0-0.772,0.135-0.962,0.406
				c-0.188,0.271-0.283,0.552-0.283,0.844h-1.693C34.576,10.104,34.965,9.394,35.695,8.975z M36.668,14.902h1.752v1.523h-1.752
				V14.902z"/>
		</g>
	</g>
	<path opacity="0.95" fill="#333333" enable-background="new    " d="M38.001,31l8.001,10H30L38.001,31z"/>
	<path opacity="0.95" fill="#333333" enable-background="new    " d="M44,87l-10,8.001V78.999L44,87z"/>
	<g opacity="0.4">
		<path fill="#FFFFFF" d="M306.154,160.538c0,0-1.826-0.019-2.459,1.06v-4.238c0,0-2.521,0.033-2.687,0.007v11.079h2.687v-0.645
			c0,0,0.805,0.946,2.231,0.946c0,0,3.688-0.103,3.707-3.67C309.635,165.077,310.131,160.908,306.154,160.538z M305.328,166.282
			c-0.855,0-1.547-0.691-1.547-1.546s0.691-1.547,1.547-1.547c0.854,0,1.545,0.691,1.545,1.547
			C306.873,165.591,306.182,166.282,305.328,166.282z"/>
		<path fill="#FFFFFF" d="M310.467,157v2.648c0,0,1.268,0.283,1.268,1.305v7.51h2.63v-7.585
			C314.363,160.878,314.666,157.17,310.467,157z"/>
		<path fill="#FFFFFF" d="M301.01,157.365v-0.006C300.996,157.361,300.998,157.363,301.01,157.365z"/>
		<path fill="#FFFFFF" d="M320.596,160.637c-2.434,0-4.406,1.816-4.406,4.059c0,2.24,1.974,4.057,4.406,4.057
			c2.437,0,4.408-1.816,4.408-4.057C325.004,162.453,323.031,160.637,320.596,160.637z M320.596,166.357
			c-0.918,0-1.664-0.744-1.664-1.664s0.746-1.664,1.664-1.664c0.92,0,1.666,0.744,1.666,1.664S321.516,166.357,320.596,166.357z"/>
		<path fill="#FFFFFF" d="M332.334,161.559c-0.871-1.172-2.289-1.021-2.289-1.021c-3.594,0.265-3.67,3.573-3.67,3.573v1.212
			c0,3.192,3.273,3.428,3.273,3.428c2.307,0,2.627-1.026,2.627-1.026c0.02,2.535-1.625,2.385-1.625,2.385h-0.719v2.496h1.19
			c3.916,0,3.877-3.854,3.877-3.854v-8.006h-2.666L332.334,161.559L332.334,161.559z M330.818,166.32
			c-0.896,0-1.625-0.729-1.625-1.627c0-0.897,0.729-1.627,1.625-1.627c0.899,0,1.629,0.729,1.629,1.627
			S331.719,166.32,330.818,166.32z"/>
	</g>
	<g opacity="0.8">
		<path fill="#FFFFFF" d="M306.154,185.538c0,0-1.826-0.019-2.459,1.06v-4.238c0,0-2.521,0.033-2.687,0.007v11.079h2.687v-0.645
			c0,0,0.805,0.946,2.231,0.946c0,0,3.688-0.103,3.707-3.67C309.635,190.077,310.131,185.908,306.154,185.538z M305.328,191.282
			c-0.855,0-1.547-0.691-1.547-1.546s0.691-1.547,1.547-1.547c0.854,0,1.545,0.691,1.545,1.547
			C306.873,190.591,306.182,191.282,305.328,191.282z"/>
		<path fill="#FFFFFF" d="M310.467,182v2.648c0,0,1.268,0.283,1.268,1.305v7.51h2.63v-7.585
			C314.363,185.878,314.666,182.17,310.467,182z"/>
		<path fill="#FFFFFF" d="M301.01,182.365v-0.006C300.996,182.361,300.998,182.363,301.01,182.365z"/>
		<path fill="#FFFFFF" d="M320.596,185.637c-2.434,0-4.406,1.816-4.406,4.059c0,2.24,1.974,4.057,4.406,4.057
			c2.437,0,4.408-1.816,4.408-4.057C325.004,187.453,323.031,185.637,320.596,185.637z M320.596,191.357
			c-0.918,0-1.664-0.744-1.664-1.664s0.746-1.664,1.664-1.664c0.92,0,1.666,0.744,1.666,1.664S321.516,191.357,320.596,191.357z"/>
		<path fill="#FFFFFF" d="M332.334,186.559c-0.871-1.172-2.289-1.021-2.289-1.021c-3.594,0.265-3.67,3.573-3.67,3.573v1.212
			c0,3.192,3.273,3.428,3.273,3.428c2.307,0,2.627-1.026,2.627-1.026c0.02,2.535-1.625,2.385-1.625,2.385h-0.719v2.496h1.19
			c3.916,0,3.877-3.854,3.877-3.854v-8.006h-2.666L332.334,186.559L332.334,186.559z M330.818,191.32
			c-0.896,0-1.625-0.729-1.625-1.627c0-0.897,0.729-1.627,1.625-1.627c0.899,0,1.629,0.729,1.629,1.627
			S331.719,191.32,330.818,191.32z"/>
	</g>
	<g opacity="0.4">
		<defs>
			<filter id="Adobe_OpacityMaskFilter" filterUnits="userSpaceOnUse" x="305" y="205.725" width="5.448" height="14.437">
				<feColorMatrix  type="matrix" values="1 0 0 0 0  0 1 0 0 0  0 0 1 0 0  0 0 0 1 0"/>
			</filter>
		</defs>
		<mask maskUnits="userSpaceOnUse" x="305" y="205.725" width="5.448" height="14.437" id="SVGID_1_">
			<g filter="url(#Adobe_OpacityMaskFilter)">
				
					<linearGradient id="SVGID_2_" gradientUnits="userSpaceOnUse" x1="-371.1636" y1="-358.4688" x2="-370.7621" y2="-358.4688" gradientTransform="matrix(0 -23.1264 23.1264 0 8597.8105 -8366.8184)">
					<stop  offset="0" style="stop-color:#FFFFFF"/>
					<stop  offset="1" style="stop-color:#B3B3B3"/>
				</linearGradient>
				<rect x="305" y="205.725" fill="url(#SVGID_2_)" width="5.448" height="14.437"/>
			</g>
		</mask>
		
			<linearGradient id="SVGID_3_" gradientUnits="userSpaceOnUse" x1="-371.1631" y1="-358.4688" x2="-370.7616" y2="-358.4688" gradientTransform="matrix(0 -23.1264 23.1264 0 8597.8105 -8366.8184)">
			<stop  offset="0" style="stop-color:#FFFFFF"/>
			<stop  offset="1" style="stop-color:#FFFFFF"/>
		</linearGradient>
		<rect x="305" y="205.725" mask="url(#SVGID_1_)" fill="url(#SVGID_3_)" width="5.448" height="14.437"/>
		<path fill="#FFFFFF" d="M321.586,211.498c-0.798-1.275-2.479-1.664-3.754-0.866l-11.551,7.218
			c-1.276,0.799-1.664,2.478-0.867,3.754c0.797,1.275,2.479,1.664,3.755,0.865l11.552-7.217
			C321.994,214.455,322.383,212.773,321.586,211.498"/>
		<defs>
			<filter id="Adobe_OpacityMaskFilter_1_" filterUnits="userSpaceOnUse" x="305" y="205.725" width="5.448" height="14.437">
				<feColorMatrix  type="matrix" values="1 0 0 0 0  0 1 0 0 0  0 0 1 0 0  0 0 0 1 0"/>
			</filter>
		</defs>
		<mask maskUnits="userSpaceOnUse" x="305" y="205.725" width="5.448" height="14.437" id="SVGID_4_">
			<g filter="url(#Adobe_OpacityMaskFilter_1_)">
				
					<linearGradient id="SVGID_5_" gradientUnits="userSpaceOnUse" x1="-363.7085" y1="-372.9517" x2="-363.3065" y2="-372.9517" gradientTransform="matrix(-6.0935 -6.2246 6.2246 -6.0935 417.1686 -4319.2568)">
					<stop  offset="0" style="stop-color:#FFFFFF"/>
					<stop  offset="1" style="stop-color:#000000"/>
				</linearGradient>
				<polygon fill="url(#SVGID_5_)" points="307.666,222.882 297.784,212.788 307.782,203.001 317.664,213.096 				"/>
			</g>
		</mask>
		<path opacity="0.2" mask="url(#SVGID_4_)" enable-background="new    " d="M306.281,217.85l4.167-2.604v-9.521H305v14.437h0.004
			C305.004,219.253,305.455,218.365,306.281,217.85"/>
		<path fill="#FFFFFF" d="M320.721,210.632l-11.552-7.218c-1.276-0.797-2.958-0.409-3.755,0.867
			c-0.797,1.275-0.409,2.955,0.867,3.753l11.551,7.218c1.275,0.797,2.956,0.41,3.754-0.865
			C322.383,213.109,321.994,211.43,320.721,210.632"/>
		<defs>
			<filter id="Adobe_OpacityMaskFilter_2_" filterUnits="userSpaceOnUse" x="305.001" y="212.941" width="14.274" height="9.942">
				<feColorMatrix  type="matrix" values="1 0 0 0 0  0 1 0 0 0  0 0 1 0 0  0 0 0 1 0"/>
			</filter>
		</defs>
		<mask maskUnits="userSpaceOnUse" x="305.001" y="212.941" width="14.274" height="9.942" id="SVGID_6_">
			<g filter="url(#Adobe_OpacityMaskFilter_2_)">
				
					<linearGradient id="SVGID_7_" gradientUnits="userSpaceOnUse" x1="-356.5342" y1="-347.124" x2="-356.1325" y2="-347.124" gradientTransform="matrix(-6.6604 15.8292 -15.8292 -6.6604 -7553.0059 3538.9634)">
					<stop  offset="0" style="stop-color:#FFFFFF"/>
					<stop  offset="1" style="stop-color:#000000"/>
				</linearGradient>
				<polygon fill="url(#SVGID_7_)" points="322.833,214.494 316.938,228.508 300.792,221.715 306.689,207.702 				"/>
			</g>
		</mask>
		<path opacity="0.5" mask="url(#SVGID_6_)" enable-background="new    " d="M317.833,215.252l-3.696-2.311l-7.854,4.908
			c-1.276,0.797-1.664,2.478-0.866,3.754c0.797,1.274,2.479,1.662,3.754,0.867l10.105-6.316L317.833,215.252z"/>
	</g>
	<g opacity="0.8">
		<defs>
			<filter id="Adobe_OpacityMaskFilter_3_" filterUnits="userSpaceOnUse" x="305" y="230.725" width="5.448" height="14.437">
				<feColorMatrix  type="matrix" values="1 0 0 0 0  0 1 0 0 0  0 0 1 0 0  0 0 0 1 0"/>
			</filter>
		</defs>
		<mask maskUnits="userSpaceOnUse" x="305" y="230.725" width="5.448" height="14.437" id="SVGID_8_">
			<g filter="url(#Adobe_OpacityMaskFilter_3_)">
				
					<linearGradient id="SVGID_9_" gradientUnits="userSpaceOnUse" x1="-372.2441" y1="-358.4688" x2="-371.8423" y2="-358.4688" gradientTransform="matrix(0 -23.1264 23.1264 0 8597.8105 -8366.8184)">
					<stop  offset="0" style="stop-color:#FFFFFF"/>
					<stop  offset="1" style="stop-color:#B3B3B3"/>
				</linearGradient>
				<rect x="305" y="230.725" fill="url(#SVGID_9_)" width="5.448" height="14.437"/>
			</g>
		</mask>
		
			<linearGradient id="SVGID_10_" gradientUnits="userSpaceOnUse" x1="-372.2441" y1="-358.4688" x2="-371.8426" y2="-358.4688" gradientTransform="matrix(0 -23.1264 23.1264 0 8597.8105 -8366.8184)">
			<stop  offset="0" style="stop-color:#FFFFFF"/>
			<stop  offset="1" style="stop-color:#FFFFFF"/>
		</linearGradient>
		<rect x="305" y="230.725" mask="url(#SVGID_8_)" fill="url(#SVGID_10_)" width="5.448" height="14.437"/>
		<path fill="#FFFFFF" d="M321.586,236.498c-0.798-1.275-2.479-1.664-3.754-0.866l-11.551,7.218
			c-1.276,0.799-1.664,2.478-0.867,3.754c0.797,1.275,2.479,1.664,3.755,0.865l11.552-7.217
			C321.994,239.455,322.383,237.773,321.586,236.498"/>
		<defs>
			<filter id="Adobe_OpacityMaskFilter_4_" filterUnits="userSpaceOnUse" x="305" y="230.725" width="5.448" height="14.437">
				<feColorMatrix  type="matrix" values="1 0 0 0 0  0 1 0 0 0  0 0 1 0 0  0 0 0 1 0"/>
			</filter>
		</defs>
		<mask maskUnits="userSpaceOnUse" x="305" y="230.725" width="5.448" height="14.437" id="SVGID_11_">
			<g filter="url(#Adobe_OpacityMaskFilter_4_)">
				
					<linearGradient id="SVGID_12_" gradientUnits="userSpaceOnUse" x1="-365.7588" y1="-374.959" x2="-365.3568" y2="-374.959" gradientTransform="matrix(-6.0935 -6.2246 6.2246 -6.0935 417.1686 -4319.2568)">
					<stop  offset="0" style="stop-color:#FFFFFF"/>
					<stop  offset="1" style="stop-color:#000000"/>
				</linearGradient>
				<polygon fill="url(#SVGID_12_)" points="307.666,247.882 297.784,237.788 307.782,228.001 317.664,238.096 				"/>
			</g>
		</mask>
		<path opacity="0.2" mask="url(#SVGID_11_)" enable-background="new    " d="M306.281,242.85l4.167-2.604v-9.521H305v14.437h0.004
			C305.004,244.253,305.455,243.365,306.281,242.85"/>
		<path fill="#FFFFFF" d="M320.721,235.632l-11.552-7.218c-1.276-0.797-2.958-0.409-3.755,0.867
			c-0.797,1.275-0.409,2.955,0.867,3.753l11.551,7.218c1.275,0.797,2.956,0.41,3.754-0.865
			C322.383,238.109,321.994,236.43,320.721,235.632"/>
		<defs>
			<filter id="Adobe_OpacityMaskFilter_5_" filterUnits="userSpaceOnUse" x="305.001" y="237.941" width="14.274" height="9.942">
				<feColorMatrix  type="matrix" values="1 0 0 0 0  0 1 0 0 0  0 0 1 0 0  0 0 0 1 0"/>
			</filter>
		</defs>
		<mask maskUnits="userSpaceOnUse" x="305.001" y="237.941" width="14.274" height="9.942" id="SVGID_13_">
			<g filter="url(#Adobe_OpacityMaskFilter_5_)">
				
					<linearGradient id="SVGID_14_" gradientUnits="userSpaceOnUse" x1="-355.1924" y1="-347.689" x2="-354.7907" y2="-347.689" gradientTransform="matrix(-6.6604 15.8292 -15.8292 -6.6604 -7553.0059 3538.9634)">
					<stop  offset="0" style="stop-color:#FFFFFF"/>
					<stop  offset="1" style="stop-color:#000000"/>
				</linearGradient>
				<polygon fill="url(#SVGID_14_)" points="322.833,239.494 316.938,253.508 300.792,246.715 306.689,232.702 				"/>
			</g>
		</mask>
		<path opacity="0.5" mask="url(#SVGID_13_)" enable-background="new    " d="M317.833,240.252l-3.696-2.311l-7.854,4.908
			c-1.276,0.797-1.664,2.478-0.866,3.754c0.797,1.274,2.479,1.662,3.754,0.867l10.105-6.316L317.833,240.252z"/>
	</g>
</g>
</svg>
